# xmcd
#
# Track frame offsets:
#	150
#	17530
#	33900
#	52236
#	70351
#	84385
#	104263
#	119370
#	131356
#	145603
#	162808
#	178172
#	195902
#	212759
#
# Disc length: 3186 seconds
# Revision: 0
# Processed by: cddbd v1.5.2PL0 Copyright (c) Steve Scherf et al.
# Submitted via: dBpowerAMP V12.0
#
DISCID=ba0c700e
DTITLE=Bernard Paquette - L'amour qu'on donne un jour
DYEAR=1900
DGENRE=Country
TTITLE0=L'amour qu'on donne un jour
TTITLE1=C'est pour toi que je chante
TTITLE2=Entrez dans ma demeure
TTITLE3=Quand on est en amour
TTITLE4=Ferme pas les yeux sur la misere
TTITLE5=Souvenirs d'un vieillard
TTITLE6=Que dieu protege notre amour
TTITLE7=Aide-moi
TTITLE8=Petite maman
TTITLE9=Amazing grace
TTITLE10=Seigneur aide-moi a me retrouver
TTITLE11=Je veux mourir aupres de toi
TTITLE12=Pauvre chez les hommes
TTITLE13=La solitude
EXTD=
EXTT0=
EXTT1=
EXTT2=
EXTT3=
EXTT4=
EXTT5=
EXTT6=
EXTT7=
EXTT8=
EXTT9=
EXTT10=
EXTT11=
EXTT12=
EXTT13=
PLAYORDER=
